<?xml version="1.0" encoding="UTF-8" standalone="no"?>
<!-- Created with Inkscape (http://www.inkscape.org/) -->

<svg
   width="70.838844mm"
   height="60.687298mm"
   viewBox="0 0 70.838844 60.687298"
   version="1.1"
   id="svg1"
   xml:space="preserve"
   inkscape:version="1.4.2 (f4327f4, 2025-05-13)"
   sodipodi:docname="dessin.svg"
   inkscape:export-filename="dessin.svg"
   inkscape:export-xdpi="96"
   inkscape:export-ydpi="96"
   xmlns:inkscape="http://www.inkscape.org/namespaces/inkscape"
   xmlns:sodipodi="http://sodipodi.sourceforge.net/DTD/sodipodi-0.dtd"
   xmlns="http://www.w3.org/2000/svg"
   xmlns:svg="http://www.w3.org/2000/svg"><sodipodi:namedview
     id="namedview1"
     pagecolor="#ffffff"
     bordercolor="#000000"
     borderopacity="0.25"
     inkscape:showpageshadow="2"
     inkscape:pageopacity="0.0"
     inkscape:pagecheckerboard="0"
     inkscape:deskcolor="#d1d1d1"
     inkscape:document-units="mm"
     inkscape:zoom="2.8284271"
     inkscape:cx="97.050407"
     inkscape:cy="107.65701"
     inkscape:window-width="1920"
     inkscape:window-height="1009"
     inkscape:window-x="-8"
     inkscape:window-y="-8"
     inkscape:window-maximized="1"
     inkscape:current-layer="svg1" /><defs
     id="defs1"><inkscape:path-effect
       effect="fillet_chamfer"
       id="path-effect72"
       is_visible="true"
       lpeversion="1"
       nodesatellites_param="F,0,0,1,0,0,0,1 @ F,0,0,1,0,0,0,1 @ F,0,0,1,0,0.41609766,0,1 @ F,0,0,1,0,0,0,1 @ F,0,0,1,0,0,0,1 @ F,0,0,1,0,0,0,1 @ F,0,0,1,0,0,0,1 @ F,0,0,1,0,0,0,1 @ F,0,0,1,0,0,0,1 @ F,0,0,1,0,0,0,1 @ F,0,0,1,0,0,0,1 @ F,0,0,1,0,0,0,1 @ F,0,0,1,0,0,0,1 @ F,0,0,1,0,0,0,1 @ F,0,0,1,0,0,0,1 @ F,0,0,1,0,0,0,1 @ F,0,0,1,0,0,0,1 @ F,0,0,1,0,0,0,1 @ F,0,0,1,0,0,0,1 @ F,0,0,1,0,0,0,1 @ F,0,0,1,0,0,0,1 @ F,0,0,1,0,0,0,1 @ F,0,0,1,0,0,0,1 @ F,0,0,1,0,0,0,1 @ F,0,0,1,0,0,0,1 @ F,0,0,1,0,0,0,1 @ F,0,0,1,0,0,0,1 @ F,0,0,1,0,0,0,1 @ F,0,0,1,0,0,0,1 @ F,0,0,1,0,0,0,1 @ F,0,0,1,0,0,0,1 @ F,0,0,1,0,0,0,1 @ F,0,0,1,0,0,0,1 @ F,0,0,1,0,0,0,1 @ F,0,0,1,0,0,0,1 @ F,0,0,1,0,0,0,1 @ F,0,0,1,0,0,0,1 @ F,0,0,1,0,0,0,1 @ F,0,0,1,0,0,0,1 @ F,0,0,1,0,0,0,1 @ F,0,0,1,0,0,0,1 @ F,0,0,1,0,0,0,1 @ F,0,0,1,0,0,0,1 @ F,0,0,1,0,0,0,1 @ F,0,0,1,0,0,0,1 @ F,0,0,1,0,0,0,1 @ F,0,0,1,0,0,0,1 @ F,0,0,1,0,0,0,1 @ F,0,0,1,0,0,0,1 @ F,0,0,1,0,0,0,1 @ F,0,0,1,0,0,0,1 @ F,0,0,1,0,0,0,1 @ F,0,0,1,0,0,0,1 @ F,0,0,1,0,0,0,1 @ F,0,0,1,0,0,0,1 @ F,0,0,1,0,0,0,1 @ F,0,0,1,0,0,0,1 @ F,0,0,1,0,0,0,1 @ F,0,0,1,0,0,0,1 @ F,0,0,1,0,0,0,1 @ F,0,0,1,0,0,0,1 @ F,0,0,1,0,0,0,1 @ F,0,0,1,0,0,0,1 @ F,0,0,1,0,0,0,1 @ F,0,0,1,0,0,0,1 @ F,0,0,1,0,0,0,1 @ F,0,0,1,0,0,0,1 @ F,0,0,1,0,0,0,1 @ F,0,0,1,0,0,0,1 @ F,0,0,1,0,0,0,1 @ F,0,0,1,0,0,0,1 @ F,0,0,1,0,0,0,1 @ F,0,0,1,0,0,0,1 @ F,0,0,1,0,0,0,1 @ F,0,0,1,0,0,0,1 @ F,0,0,1,0,0,0,1 @ F,0,0,1,0,0,0,1 @ F,0,0,1,0,0,0,1 @ F,0,0,1,0,0.51994041,0,1 @ F,0,0,1,0,0.99197973,0,1 @ F,0,0,1,0,0,0,1 @ F,0,0,1,0,0,0,1 @ F,0,0,1,0,0,0,1 @ F,0,0,1,0,0,0,1 @ F,0,0,1,0,0,0,1 @ F,0,0,1,0,0,0,1 @ F,0,0,1,0,0,0,1 @ F,0,0,1,0,0,0,1 @ F,0,0,1,0,0,0,1 | F,0,0,1,0,0,0,1 @ F,0,0,1,0,0,0,1 @ F,0,0,1,0,0,0,1 @ F,0,0,1,0,0,0,1 @ F,0,0,1,0,0,0,1 @ F,0,0,1,0,0,0,1 @ F,0,0,1,0,0,0,1 @ F,0,0,1,0,0,0,1 @ F,0,0,1,0,0,0,1 @ F,0,0,1,0,0,0,1 @ F,0,0,1,0,0,0,1 @ F,0,0,1,0,0,0,1 @ F,0,0,1,0,0,0,1 @ F,0,0,1,0,0,0,1 @ F,0,0,1,0,0,0,1 @ F,0,0,1,0,0,0,1 @ F,0,0,1,0,0,0,1 @ F,0,0,1,0,0,0,1 @ F,0,0,1,0,0,0,1 @ F,0,0,1,0,0,0,1 | F,0,0,1,0,0,0,1 @ F,0,0,1,0,0,0,1 @ F,0,0,1,0,0,0,1 @ F,0,0,1,0,0,0,1 @ F,0,0,1,0,0,0,1 | F,0,0,1,0,0,0,1 @ F,0,0,1,0,0,0,1 @ F,0,0,1,0,0,0,1 @ F,0,0,1,0,0,0,1 @ F,0,0,1,0,0,0,1 @ F,0,0,1,0,0,0,1 @ F,0,0,1,0,0,0,1 @ F,0,0,1,0,0,0,1 | F,0,0,1,0,0,0,1 @ F,0,0,1,0,0,0,1 @ F,0,0,1,0,0,0,1 @ F,0,0,1,0,0,0,1 | F,0,0,1,0,0,0,1 @ F,0,0,1,0,0,0,1 @ F,0,0,1,0,0,0,1 @ F,0,0,1,0,0,0,1 @ F,0,0,1,0,0,0,1 @ F,0,0,1,0,0,0,1 | F,0,0,1,0,0,0,1 @ F,0,0,1,0,0,0,1 @ F,0,0,1,0,0,0,1 @ F,0,0,1,0,0,0,1"
       radius="0"
       unit="px"
       method="auto"
       mode="F"
       chamfer_steps="1"
       flexible="false"
       use_knot_distance="true"
       apply_no_radius="true"
       apply_with_radius="true"
       only_selected="false"
       hide_knots="false" /><clipPath
       clipPathUnits="userSpaceOnUse"
       id="clipPath43"><g
         inkscape:label="Clip"
         id="use43"
         style="mix-blend-mode:normal;fill:none;fill-opacity:1" /></clipPath></defs><path
     id="path1"
     style="display:inline;fill:#000000;stroke-width:0.236283"
     d="m 41.729347,3.7492981 c -1.01741,-0.023564 -2.075301,0.00684 -3.164463,0.1070267 -10.175412,0.9374366 -17.114563,6.2718342 -18.418136,7.7541722 -0.134716,0.153197 -0.27233,0.45568 -0.30817,0.65492 -0.02802,0.155759 -0.04349,0.329841 -0.03881,0.510532 0.0038,0.145972 0.01482,0.272945 0.03929,0.380744 l -4.67e-4,4.5e-4 v 4.59e-4 l 4.67e-4,4.6e-4 v 4.5e-4 4.49e-4 4.7e-4 h 4.68e-4 v 4.49e-4 c 4.55e-4,0.002 8.59e-4,0.0029 0.0014,0.0049 1.72e-4,7.43e-4 2.95e-4,0.002 4.68e-4,0.0029 5.65e-4,0.002 0.0012,0.0039 0.0019,0.0059 0.0013,0.0049 0.003,0.0088 0.0043,0.0132 0.0011,0.0039 0.0022,0.0088 0.0032,0.01281 6.5e-5,2.35e-4 3.83e-4,8.7e-4 4.68e-4,0.002 v 4.6e-4 c 0.0012,0.0049 0.0025,0.0088 0.0037,0.01359 0.0012,0.0049 0.0023,0.0088 0.0037,0.01369 v 4.59e-4 4.5e-4 l 4.68e-4,4.5e-4 4.68e-4,4.59e-4 v 4.6e-4 4.6e-4 4.49e-4 4.5e-4 4.6e-4 4.59e-4 4.6e-4 4.59e-4 4.4e-4 l -4.68e-4,4.6e-4 v 4.59e-4 c 0.01459,0.05104 0.03159,0.0923 0.04817,0.132987 0.0056,0.01359 0.01029,0.0307 0.0159,0.04331 0.01095,0.02444 0.0208,0.04019 0.03132,0.06013 0.0023,0.0049 0.0044,0.0088 0.0066,0.01281 0.0074,0.01359 0.01562,0.03227 0.02244,0.04371 0.0013,0.0029 0.002,0.0029 0.0032,0.0059 0.0011,0.002 0.0021,0.0049 0.0032,0.0068 0.414131,0.696671 1.518043,0.610705 2.152976,0.380284 -0.0028,6.65e-4 -0.0043,8.9e-4 -0.0043,8.9e-4 l 5.298734,-1.97795 -7.182354,6.04904 0.323601,-1.318933 -2.855359,1.6054 -1.118574,-3.067332 -1.354261,2.780865 -0.08839,0.171696 -2.678593,-1.891867 0.64767,3.182112 -3.414646,-0.05739 2.443374,2.322252 -2.620139,1.892316 3.29727,0.401238 -1.03066,3.09601 1.265879,-0.658998 c 0,0 -3.296787,4.500684 -5.563414,10.205764 -2.191098,5.514972 -2.924895,7.815273 -4.141345,15.78342 0.0062,4.89e-4 0.01242,0.002 0.01823,0.0049 0.402961,-2.321949 1.864308,-9.952981 4.50563,-15.386299 0.559935,-1.151803 0.918935,-1.893148 1.130735,-2.333633 1.28807,-2.440474 3.478309,-6.266701 5.845395,-8.98976 l 0.942277,2.8378 1.442643,-2.866948 2.796437,1.834482 -0.765513,-3.21078 3.444106,0.05739 -2.501828,-2.322242 2.708055,-1.891867 L 20.16662,19.8867 c 0,0 6.64562,-7.13366 16.411998,-11.6636074 -0.540489,0.049573 -6.246802,0.6395786 -14.902952,4.2241304 l 0.01263,-0.06786 c 0.0058,-0.0029 0.0088,-0.0039 0.0088,-0.0039 0,0 4.562654,-4.9597165 14.247332,-6.7085161 8.375499,-1.5123748 15.395989,1.5238148 17.141029,2.3723526 0.23223,0.1129226 0.56114,0.3641409 0.69724,0.5793089 0.249,0.39365 0.51285,1.0430748 0.0856,1.6427406 -0.28025,0.393308 -1.09742,0.759473 -1.25653,1.205531 -0.28224,0.791241 0.47239,1.777537 1.08817,1.864069 0.043,0.0078 0.0857,0.01653 0.12814,0.0264 1.39108,0.202389 8.26957,1.252982 13.31721,2.933436 0.0142,-0.0098 0.0296,-0.01789 0.0426,-0.02923 0.01,-0.0068 0.0167,-0.01496 0.0229,-0.02415 -0.81301,-0.359008 -7.39007,-3.219942 -12.98612,-4.320676 0,0 4.09334,-2.1182694 0.19313,-4.9332289 -0.11805,-0.085164 -0.59707,-0.3866296 -0.64908,-0.4176347 -0.87117,-0.5294916 -5.64466,-2.664471 -12.03963,-2.8122804 z m -4.673509,4.2546372 v 8.8e-4 c -5.4e-5,0.00293 9.4e-5,0.00489 0,0.00684 l 4.68e-4,-4.596e-4 V 8.010746 h 4.68e-4 v 4.497e-4 h 4.67e-4 4.68e-4 l 4.67e-4,-4.497e-4 h 4.69e-4 l 4.67e-4,-4.596e-4 V 8.009841 l -4.67e-4,-4.595e-4 v -4.596e-4 -4.595e-4 -4.498e-4 -4.498e-4 -4.595e-4 c -4.27e-4,-5.378e-4 -0.002,-0.00293 -0.0028,-0.00391 z m -0.437234,0.1976561 c -0.0087,0.00489 -0.01739,0.00782 -0.02618,0.011831 -0.0023,8.8e-4 -0.0044,0.00196 -0.0066,0.00391 0.023,-0.00196 0.03561,-0.00391 0.03601,-0.00391 -9.5e-4,-0.00489 -0.0023,-0.00782 -0.0032,-0.011831 z m -0.03414,0.015156 -4.68e-4,4.595e-4 h -4.68e-4 l -4.68e-4,4.498e-4 -4.67e-4,4.498e-4 -4.67e-4,4.693e-4 -4.69e-4,4.595e-4 c 9.06e-4,-8.8e-5 0.0019,-3.911e-4 0.0029,-4.595e-4 z M 52.904337,11.02494 c -0.003,8.8e-4 -0.006,0.002 -0.009,0.0029 -3.7e-4,8.9e-4 -9e-4,0.002 -0.002,0.0039 0.003,-0.002 0.007,-0.0049 0.01,-0.0068 z m -0.15058,0.05505 v 4.49e-4 4.6e-4 h 4.8e-4 v -4.6e-4 -4.49e-4 z m 5.8253,5.953854 v 4.59e-4 c -6.3023,0.204569 -11.45705,1.292074 -15.30419,2.381446 -0.0507,0.01809 -0.11574,0.03784 -0.1964,0.05876 -0.0381,0.01 -0.0779,0.02053 -0.11878,0.03148 -0.006,0.002 -0.0115,0.0039 -0.0173,0.0059 h -0.002 c -0.16593,0.04488 -0.35272,0.09784 -0.5518,0.156218 -0.079,0.02317 -0.15993,0.04732 -0.24223,0.07196 -0.89202,0.266833 -1.94374,0.607312 -2.450392,0.772868 -0.163453,0.05837 -0.34797,0.126856 -0.49055,0.18035 -1.384355,0.549545 -2.657933,1.054768 -2.771655,1.099863 -0.0054,0.002 -0.0093,0.0039 -0.0093,0.0039 l -0.07529,0.0309 c -0.0051,0.002 -0.01024,0.0049 -0.01543,0.0068 l -4.68e-4,4.5e-4 h -4.67e-4 l -4.67e-4,4.6e-4 h -4.68e-4 l -4.68e-4,4.49e-4 h -4.68e-4 c -0.113499,0.04087 -0.64621,0.259011 -1.01663,0.418544 -0.639267,0.275311 -1.274418,0.58237 -1.909808,0.889917 -0.198829,0.09631 -0.405659,0.181983 -0.602309,0.280542 -0.857291,0.429515 -1.71189,0.888529 -2.564493,1.378127 -0.09244,0.05309 -0.219277,0.127775 -0.369428,0.215422 -0.0078,0.0049 -0.01562,0.0078 -0.02338,0.0133 -0.08663,0.05075 -0.121292,0.07128 -0.179103,0.105198 -0.05114,0.03021 -0.101487,0.05935 -0.152448,0.08966 l -0.0093,0.0059 v 4.6e-4 4.5e-4 c -6.434242,3.831341 -11.416117,8.581922 -14.280066,11.654495 0.587889,-0.691254 0.344151,-0.412873 -0.187521,0.202202 0.05933,-0.06424 0.119683,-0.129603 0.180974,-0.195378 -0.418903,0.492503 -1.252155,1.468855 -2.69122,3.150677 -1.355884,1.584613 -2.57809,3.408114 -3.686341,5.298944 l -0.0028,0.0039 v 4.5e-4 c -0.04032,0.06727 -0.207042,0.344546 -0.329212,0.55244 -3.9e-4,6.74e-4 -5.48e-4,8.9e-4 -9.06e-4,0.002 l -0.0037,0.0078 0.0014,-0.002 c -0.02686,0.04723 -0.05373,0.09475 -0.08043,0.142089 -0.0084,0.01555 -0.01641,0.03021 -0.02386,0.04459 -0.008,0.01535 -0.01494,0.02738 -0.02151,0.03598 -2.192631,3.901457 -3.862165,8.034156 -4.950817,11.097049 2.573875,-6.869506 6.654881,-12.845008 8.770899,-15.691882 l 4.67e-4,-4.6e-4 4.69e-4,-4.59e-4 0.03508,-0.04508 4.68e-4,-4.5e-4 v -4.6e-4 h 4.68e-4 l 4.66e-4,-4.59e-4 c 0.415898,-0.490127 0.872058,-1.028653 1.3725,-1.61905 C 19.021856,33.484547 25.080819,29.112137 29.963791,26.2773 l -0.01309,0.01359 c 0,0 0.223994,-0.134678 0.612598,-0.357522 0.167087,-0.09465 0.332671,-0.18733 0.496625,-0.278273 h -0.0056 c 0.924623,-0.518873 2.3347,-1.28035 3.85796,-1.992968 0.540455,-0.243064 1.130537,-0.497528 1.765777,-0.75738 0.0022,-8.8e-4 0.0063,-0.0039 0.0085,-0.0049 l 0.02431,-0.01007 c 0.0087,-0.0039 0.02302,-0.0078 0.0318,-0.01134 2.368675,-0.965166 5.244976,-1.988314 8.949066,-2.789958 0.26287,-0.05691 0.50774,-0.106205 0.73513,-0.148025 10.66854,-2.315329 19.52828,-1.236507 19.52828,-1.236507 l 1.51606,-1.336229 c -3.12256,-0.337888 -6.10177,-0.422143 -8.89248,-0.331552 z m -42.432433,1.974292 c 1.545465,0 2.798311,1.207106 2.798308,2.696161 -2e-6,1.489035 -1.252847,2.696141 -2.798308,2.696141 -1.54546,0 -2.798305,-1.207106 -2.798307,-2.696141 -3e-6,-1.489055 1.252843,-2.696161 2.798307,-2.696161 z" /></svg>
